<svg xmlns="http://www.w3.org/2000/svg" width="525.916" height="62.628" viewBox="0 0 525.916 62.628">
  <g id="그룹_41170" data-name="그룹 41170" transform="translate(-481.796 -225.116)">
    <g id="그룹_41168" data-name="그룹 41168" transform="translate(478 216)">
      <path id="패스_38772" data-name="패스 38772" d="M32.85-27.959l.365-.073,19.637,36.5H39.2L24.455-17.374l-7.957,10V8.468H3.8V-53.144H16.5v27.521L37.814-53.144H52.779ZM67.817,8.468H55.042L75.628-53.144H88.622L110.084,8.468H97.309L92.637-5.475H72.27ZM75.847-16.5H88.914l-6.643-20ZM114.464,8.468V-53.144H142.2a34.622,34.622,0,0,1,9.052,1.022,14.091,14.091,0,0,1,6.023,3.175,12.562,12.562,0,0,1,3.358,5.475,26.228,26.228,0,0,1,1.059,7.921v6.2q0,8.76-5.074,12.52t-15.95,3.759H127.166V8.468Zm26.572-32.339q4.453,0,6.351-1.533t1.9-5.037V-35.77q0-3.5-1.9-5.037t-6.351-1.533h-13.87v18.469Zm27.01-29.273h43.435v10.8H180.748v14.381h29.638v10.8H180.748V-2.263h31.463V8.468H168.046Z" transform="translate(0 62.26)" fill="#fff"/>
      <path id="패스_38773" data-name="패스 38773" d="M13.115-7.259q0,2.928,1.25,4.179T18.544-1.83h18.91V7.137H14.64q-6.283,0-9.18-3.2t-2.9-9.3V-17.446q0-6.1,2.9-9.272t9.18-3.172h22.2v8.967h-18.3q-2.928,0-4.178,1.281a5.684,5.684,0,0,0-1.25,4.087ZM78.751-29.89v23.3q0,7.015-3.05,10.4T65.453,7.2H58.926a38.637,38.637,0,0,1-7.595-.641,12.34,12.34,0,0,1-5.155-2.2A8.785,8.785,0,0,1,43.249.153a20.99,20.99,0,0,1-.915-6.741v-23.3H52.887v17.507q0,2.867.061,4.88a8.279,8.279,0,0,0,.671,3.294,3.814,3.814,0,0,0,2.043,1.891,10.9,10.9,0,0,0,4.118.61h1.83a9.774,9.774,0,0,0,4-.64,3.793,3.793,0,0,0,1.952-1.983A9.2,9.2,0,0,0,68.2-7.686q.061-2.013.061-4.7V-29.89ZM83.936,7.137V-19.581q0-5.246,2.41-7.777t7.9-2.532h16.531v8.967H97.783a3.309,3.309,0,0,0-2.562.824,3.833,3.833,0,0,0-.732,2.592V7.137ZM114.741-7.93a7.79,7.79,0,0,1,2.226-5.948q2.227-2.1,6.618-2.1h16.9v-2.745a3.481,3.481,0,0,0-.7-2.41,2.983,2.983,0,0,0-2.287-.762H116.388V-29.89h23.79a16.384,16.384,0,0,1,5.185.7,7.48,7.48,0,0,1,3.324,2.135,8.308,8.308,0,0,1,1.769,3.569,21.064,21.064,0,0,1,.519,4.941V7.076H123.586q-4.392,0-6.618-2.1a7.79,7.79,0,0,1-2.226-5.947Zm10.553,3.05q0,1.22.061,1.983a2.352,2.352,0,0,0,.366,1.189,1.667,1.667,0,0,0,.915.61,6.516,6.516,0,0,0,1.769.183h12.078V-7.991H128.4q-1.952,0-2.531.793A3.9,3.9,0,0,0,125.294-4.88Zm29.646-24.4h8.3V-42.4h10.492V-29.28h12.688v8.906H173.728V-5.246a3.833,3.833,0,0,0,.732,2.593,3.309,3.309,0,0,0,2.562.823h9.394V7.076H174.4a17.291,17.291,0,0,1-5.459-.732,7.432,7.432,0,0,1-3.416-2.227A8.809,8.809,0,0,1,163.755.4a23.513,23.513,0,0,1-.518-5.277V-20.374h-8.3Zm48.129-.61V7.076H192.394V-29.89Zm-10.98-17.385h11.285v11.163H192.089ZM228.811,7.686a37.858,37.858,0,0,1-8.784-.885,14.436,14.436,0,0,1-6.039-2.9,11.816,11.816,0,0,1-3.507-5.216,23.751,23.751,0,0,1-1.129-7.839V-13.6a23.234,23.234,0,0,1,1.159-7.808,12.024,12.024,0,0,1,3.538-5.246,14.717,14.717,0,0,1,6.039-2.928,42.037,42.037,0,0,1,17.446,0,14.717,14.717,0,0,1,6.039,2.928,11.8,11.8,0,0,1,3.507,5.246,23.811,23.811,0,0,1,1.129,7.808V-9.15a23.751,23.751,0,0,1-1.129,7.839A11.816,11.816,0,0,1,243.573,3.9a14.436,14.436,0,0,1-6.039,2.9A37.547,37.547,0,0,1,228.811,7.686Zm0-8.6a18.637,18.637,0,0,0,3.935-.366,6.02,6.02,0,0,0,2.775-1.342,5.922,5.922,0,0,0,1.647-2.653,14.09,14.09,0,0,0,.549-4.3v-3.66a16.578,16.578,0,0,0-.427-4.087,5.675,5.675,0,0,0-1.434-2.653,5.91,5.91,0,0,0-2.714-1.464,17.11,17.11,0,0,0-4.331-.458,17.11,17.11,0,0,0-4.331.458,5.91,5.91,0,0,0-2.715,1.464,5.675,5.675,0,0,0-1.433,2.653,16.578,16.578,0,0,0-.427,4.087v3.66a14.09,14.09,0,0,0,.549,4.3A5.922,5.922,0,0,0,222.1-2.623a6.02,6.02,0,0,0,2.775,1.342A18.637,18.637,0,0,0,228.811-.915Zm51,7.991V-15.555a5.6,5.6,0,0,0-1.281-4.087,5.791,5.791,0,0,0-4.209-1.281h-9.882v28H253.882V-29.89h24.339q6.283,0,9.18,3.172t2.9,9.272V7.076Z" transform="translate(239.413 64.058)" fill="#fff"/>
    </g>
  </g>
</svg>
