<svg xmlns="http://www.w3.org/2000/svg" xmlns:xlink="http://www.w3.org/1999/xlink" width="99" height="33" viewBox="0 0 99 33">
  <defs>
    <clipPath id="clip-path">
      <rect id="사각형_28856" data-name="사각형 28856" width="99" height="33" transform="translate(-0.23 0.093)" fill="#fff" stroke="#707070" stroke-width="1"/>
    </clipPath>
  </defs>
  <g id="logo-isg" transform="translate(0.23 -0.093)" clip-path="url(#clip-path)">
    <g id="그룹_41161" data-name="그룹 41161" transform="translate(1.158 0.101)">
      <path id="패스_28086" data-name="패스 28086" d="M.091,0V1.021H1.61V10.24H.091v1.023h4.2V10.24H2.743V1.021H4.286V0Z" transform="translate(-0.038 0)" fill="#0064ff"/>
      <path id="패스_28087" data-name="패스 28087" d="M20.175,12.891h-1.5l-3.38-7.609-.034-.052v7.66h-1.13V3.871l1.5,0,3.345,7.616.069-7.612h1.129Z" transform="translate(-5.951 -1.628)" fill="#0064ff"/>
      <path id="패스_28088" data-name="패스 28088" d="M35.83,10.374a2.421,2.421,0,0,1-.745,1.817,2.911,2.911,0,0,1-2.1.715,2.9,2.9,0,0,1-2.092-.648,2.958,2.958,0,0,1-.8-1.842l1.13-.116a2.775,2.775,0,0,0,.493,1.32,1.591,1.591,0,0,0,1.3.44,1.762,1.762,0,0,0,1.221-.407,1.5,1.5,0,0,0,.461-1.2,1.452,1.452,0,0,0-.619-1.337,15.663,15.663,0,0,0-1.652-.868,6.24,6.24,0,0,1-1.537-.941,1.757,1.757,0,0,1-.5-1.368,2.128,2.128,0,0,1,.728-1.618,3.029,3.029,0,0,1,3.656-.12,2.8,2.8,0,0,1,.884,1.481l-1.1.134a2.082,2.082,0,0,0-.526-.952,1.4,1.4,0,0,0-1.031-.349,1.434,1.434,0,0,0-1.112.4,1.471,1.471,0,0,0-.375,1.029,1.118,1.118,0,0,0,.325.863,7.514,7.514,0,0,0,1.6.92,7.18,7.18,0,0,1,1.831,1.147,2,2,0,0,1,.552,1.5" transform="translate(-12.674 -1.537)" fill="#0064ff"/>
      <path id="패스_28089" data-name="패스 28089" d="M51.256,12.891H47.063v-.807h1.519V4.672H47.063V3.866h4.193v.806H49.713v7.412h1.543Z" transform="translate(-19.823 -1.628)" fill="#0064ff"/>
      <path id="패스_28090" data-name="패스 28090" d="M68.264,12.891H62.492V3.866h1.13v8.218h4.642Z" transform="translate(-26.322 -1.628)" fill="#0064ff"/>
      <path id="패스_28091" data-name="패스 28091" d="M82.57,12.891h-4.2v-.807H79.9V4.672H78.375V3.866h4.2v.806H81.026v7.412H82.57Z" transform="translate(-33.012 -1.628)" fill="#0064ff"/>
      <path id="패스_28092" data-name="패스 28092" d="M98.483,11.437a4,4,0,0,1-1.265,1.073,3.437,3.437,0,0,1-1.657.4,2.706,2.706,0,0,1-2.654-1.4,6.876,6.876,0,0,1-.722-3.219,5.47,5.47,0,0,1,.932-3.547,3.04,3.04,0,0,1,2.444-1.1,3.111,3.111,0,0,1,1.606.392,3.5,3.5,0,0,1,1.147,1.084l-.962.459a2.442,2.442,0,0,0-.747-.779,1.88,1.88,0,0,0-1.044-.287A1.7,1.7,0,0,0,93.787,5.67,7.531,7.531,0,0,0,93.359,8.3a7.486,7.486,0,0,0,.428,2.6,1.7,1.7,0,0,0,1.775,1.165,2.038,2.038,0,0,0,1.1-.314,3.412,3.412,0,0,0,.887-.817Z" transform="translate(-38.829 -1.537)" fill="#0064ff"/>
      <path id="패스_28093" data-name="패스 28093" d="M114.144,8.277a6.37,6.37,0,0,1-.759,3.508,3.093,3.093,0,0,1-4.75.019,6.429,6.429,0,0,1-.753-3.526,8.417,8.417,0,0,1,.577-3.244,2.451,2.451,0,0,1,2.554-1.385c1.368,0,2.228.469,2.591,1.411a8.906,8.906,0,0,1,.541,3.218m-1.174,0a9.6,9.6,0,0,0-.314-2.8c-.208-.642-.756-.96-1.644-.96A1.5,1.5,0,0,0,109.38,5.57a9.39,9.39,0,0,0-.325,2.71,7.5,7.5,0,0,0,.406,2.878,1.549,1.549,0,0,0,1.551.9,1.5,1.5,0,0,0,1.625-1.013,9.223,9.223,0,0,0,.333-2.768" transform="translate(-45.44 -1.537)" fill="#0064ff"/>
      <path id="패스_28094" data-name="패스 28094" d="M129.772,5.124l-.987.5a2.812,2.812,0,0,0-.809-.806,1.931,1.931,0,0,0-1.09-.3,1.612,1.612,0,0,0-1.643,1.229,8.084,8.084,0,0,0-.414,2.583,5,5,0,0,0,.618,2.928,1.971,1.971,0,0,0,1.643.8,2.67,2.67,0,0,0,1.475-.419V8.95h-2.107v-.8H129.7v3.988a4.67,4.67,0,0,1-1.247.563,4.8,4.8,0,0,1-1.38.208,2.759,2.759,0,0,1-2.674-1.4,6.782,6.782,0,0,1-.743-3.212,7.052,7.052,0,0,1,.719-3.21,2.623,2.623,0,0,1,2.574-1.434,3.262,3.262,0,0,1,1.609.383,3.96,3.96,0,0,1,1.217,1.093" transform="translate(-52.083 -1.537)" fill="#40c140"/>
      <path id="패스_28095" data-name="패스 28095" d="M145.93,12.891h-5.492V3.866h5.492v.806h-4.362V7.651h3.6v.8h-3.6v3.629h4.362Z" transform="translate(-59.153 -1.628)" fill="#40c140"/>
      <path id="패스_28096" data-name="패스 28096" d="M161.087,12.891h-1.5l-3.381-7.609-.034-.052v7.66h-1.13V3.871l1.5,0,3.343,7.616.068-7.612h1.13Z" transform="translate(-65.305 -1.628)" fill="#40c140"/>
      <path id="패스_28097" data-name="패스 28097" d="M55.8,47.215l-1.115,3.564h-.617l-.832-2.486-.828,2.483-.615,0-1.1-3.564.75,0,.7,2.518.832-2.52h.556l.82,2.507.692-2.507Z" transform="translate(-21.351 -19.887)" fill="#85898b"/>
      <path id="패스_28098" data-name="패스 28098" d="M64.825,47.215l-1.109,3.564H63.1l-.834-2.486-.832,2.483-.614,0-1.1-3.564.749,0,.694,2.518.83-2.52h.559l.821,2.507.7-2.507Z" transform="translate(-25.153 -19.887)" fill="#85898b"/>
      <path id="패스_28099" data-name="패스 28099" d="M73.849,47.215l-1.11,3.564h-.618l-.832-2.486-.832,2.483-.615,0-1.1-3.564.753,0,.689,2.518.834-2.52h.555l.823,2.507.693-2.507Z" transform="translate(-28.954 -19.887)" fill="#85898b"/>
      <rect id="사각형_28854" data-name="사각형 28854" width="0.858" height="0.86" transform="translate(45.503 30.032)" fill="#85898b"/>
      <path id="패스_28100" data-name="패스 28100" d="M82.751,45.455H82V44.7h.753Zm-.019,4.265h-.72V46.156h.72Z" transform="translate(-34.538 -18.828)" fill="#85898b"/>
      <path id="패스_28101" data-name="패스 28101" d="M88.119,50.747H87.4V48.573a.79.79,0,0,0-.2-.6.7.7,0,0,0-.528-.2.739.739,0,0,0-.538.2.782.782,0,0,0-.211.594v2.174h-.7V47.183h.7v.357a1.252,1.252,0,0,1,.954-.4,1.492,1.492,0,0,1,.5.079,1.013,1.013,0,0,1,.38.244,1.042,1.042,0,0,1,.277.436,1.784,1.784,0,0,1,.08.569Z" transform="translate(-35.899 -19.855)" fill="#85898b"/>
      <path id="패스_28102" data-name="패스 28102" d="M94.518,49.656a.976.976,0,0,1-.412.84,1.8,1.8,0,0,1-1.074.3,2.8,2.8,0,0,1-.807-.1,1.727,1.727,0,0,1-.69-.418l.473-.471a1.1,1.1,0,0,0,.468.289,1.88,1.88,0,0,0,.562.083,1.171,1.171,0,0,0,.565-.122.4.4,0,0,0,.217-.37.42.42,0,0,0-.113-.311.505.505,0,0,0-.364-.112l-.575-.046a1.332,1.332,0,0,1-.791-.282.908.908,0,0,1-.264-.7.952.952,0,0,1,.378-.8,1.543,1.543,0,0,1,.968-.287,2.886,2.886,0,0,1,.748.093,1.531,1.531,0,0,1,.574.3l-.449.461a1.055,1.055,0,0,0-.391-.2,1.945,1.945,0,0,0-.491-.063.819.819,0,0,0-.484.123.4.4,0,0,0-.164.334.38.38,0,0,0,.109.281.656.656,0,0,0,.384.128l.564.049a1.314,1.314,0,0,1,.79.288.929.929,0,0,1,.27.719" transform="translate(-38.554 -19.854)" fill="#85898b"/>
      <path id="패스_28103" data-name="패스 28103" d="M98.918,45.455H98.16V44.7h.758ZM98.9,49.72h-.715V46.156H98.9Z" transform="translate(-41.345 -18.828)" fill="#85898b"/>
      <path id="패스_28104" data-name="패스 28104" d="M102.783,49.728h-.444a.935.935,0,0,1-.744-.3,1.012,1.012,0,0,1-.232-.688V44.72h.721v3.974a.469.469,0,0,0,.086.314.366.366,0,0,0,.3.1h.318Z" transform="translate(-42.694 -18.836)" fill="#85898b"/>
      <path id="패스_28105" data-name="패스 28105" d="M105.9,45.455h-.752V44.7h.752Zm-.017,4.265h-.717V46.156h.717Z" transform="translate(-44.288 -18.828)" fill="#85898b"/>
      <path id="패스_28106" data-name="패스 28106" d="M110.822,50.283a1.56,1.56,0,0,1-1.174.509,1.513,1.513,0,0,1-1.1-.409,2.281,2.281,0,0,1,0-2.837,1.5,1.5,0,0,1,1.1-.408,1.633,1.633,0,0,1,.647.112,1.57,1.57,0,0,1,.528.39l-.492.475a.918.918,0,0,0-.682-.335.772.772,0,0,0-.659.316,1.394,1.394,0,0,0-.211.865,1.413,1.413,0,0,0,.211.871.773.773,0,0,0,.659.315.811.811,0,0,0,.359-.069,1.244,1.244,0,0,0,.324-.266Z" transform="translate(-45.514 -19.854)" fill="#85898b"/>
      <path id="패스_28107" data-name="패스 28107" d="M116.954,48.961a3.277,3.277,0,0,1-.088.822,1.316,1.316,0,0,1-.333.585,1.357,1.357,0,0,1-.451.31,1.571,1.571,0,0,1-.618.113,1.552,1.552,0,0,1-.608-.113,1.429,1.429,0,0,1-.456-.31,1.386,1.386,0,0,1-.328-.585,3.146,3.146,0,0,1-.094-.822,3.2,3.2,0,0,1,.094-.818,1.33,1.33,0,0,1,.328-.583,1.368,1.368,0,0,1,.451-.31,1.515,1.515,0,0,1,.612-.112,1.56,1.56,0,0,1,.615.112,1.328,1.328,0,0,1,.454.31,1.379,1.379,0,0,1,.333.583,3.214,3.214,0,0,1,.088.818m-.715,0a3.1,3.1,0,0,0-.035-.549.844.844,0,0,0-.211-.429.71.71,0,0,0-.529-.2.7.7,0,0,0-.52.2.752.752,0,0,0-.194.39,2.852,2.852,0,0,0-.051.588,3.223,3.223,0,0,0,.045.594.746.746,0,0,0,.2.382.759.759,0,0,0,1.049,0,.744.744,0,0,0,.2-.391,3.281,3.281,0,0,0,.049-.585" transform="translate(-48.008 -19.855)" fill="#85898b"/>
      <path id="패스_28108" data-name="패스 28108" d="M123.394,50.724a1.437,1.437,0,0,1-1.526,1.5,1.947,1.947,0,0,1-.688-.106,1.682,1.682,0,0,1-.57-.37l.455-.448a1.271,1.271,0,0,0,.349.237,1.048,1.048,0,0,0,.425.072.77.77,0,0,0,.646-.276.988.988,0,0,0,.193-.631V50.25a1.072,1.072,0,0,1-.411.307,1.438,1.438,0,0,1-.991.012,1.084,1.084,0,0,1-.374-.232,1.2,1.2,0,0,1-.317-.581,4.5,4.5,0,0,1,0-1.731,1.2,1.2,0,0,1,.317-.582,1.174,1.174,0,0,1,.862-.306,1.331,1.331,0,0,1,.517.088,1.128,1.128,0,0,1,.414.33v-.373h.7Zm-.715-1.837a1.467,1.467,0,0,0-.208-.913.644.644,0,0,0-.518-.2.61.61,0,0,0-.6.343,2.413,2.413,0,0,0-.005,1.542.7.7,0,0,0,1.211.005,1.833,1.833,0,0,0,.122-.775" transform="translate(-50.756 -19.855)" fill="#85898b"/>
      <path id="패스_28109" data-name="패스 28109" d="M130.171,49.178h-2.308a1.076,1.076,0,0,0,.23.734.867.867,0,0,0,.675.265,1.255,1.255,0,0,0,.477-.079,1.376,1.376,0,0,0,.389-.285l.452.428a1.965,1.965,0,0,1-.585.418,1.836,1.836,0,0,1-.749.134,1.563,1.563,0,0,1-1.142-.4,1.93,1.93,0,0,1-.467-1.431,2.015,2.015,0,0,1,.406-1.343,1.525,1.525,0,0,1,2.214-.007,1.878,1.878,0,0,1,.406,1.248Zm-.71-.505a1.215,1.215,0,0,0-.094-.477.744.744,0,0,0-.275-.339.771.771,0,0,0-.431-.123.8.8,0,0,0-.435.119.746.746,0,0,0-.274.335,1.268,1.268,0,0,0-.088.486Z" transform="translate(-53.554 -19.855)" fill="#85898b"/>
      <path id="패스_28110" data-name="패스 28110" d="M136.9,50.747h-.717V48.573a.79.79,0,0,0-.2-.6.71.71,0,0,0-.527-.2.734.734,0,0,0-.537.2.774.774,0,0,0-.208.594v2.174h-.7V47.183h.7v.357a1.233,1.233,0,0,1,.949-.4,1.46,1.46,0,0,1,.5.079,1.06,1.06,0,0,1,.385.244,1.093,1.093,0,0,1,.278.436,1.82,1.82,0,0,1,.078.569Z" transform="translate(-56.448 -19.855)" fill="#85898b"/>
      <rect id="사각형_28855" data-name="사각형 28855" width="0.858" height="0.86" transform="translate(81.539 30.032)" fill="#85898b"/>
      <path id="패스_28111" data-name="패스 28111" d="M146.728,50.283a1.548,1.548,0,0,1-1.172.509,1.5,1.5,0,0,1-1.095-.409,2.289,2.289,0,0,1,0-2.837,1.49,1.49,0,0,1,1.095-.408,1.646,1.646,0,0,1,.648.112,1.57,1.57,0,0,1,.524.39l-.491.475a.911.911,0,0,0-.681-.335.77.77,0,0,0-.659.316,1.393,1.393,0,0,0-.212.865,1.413,1.413,0,0,0,.212.871.771.771,0,0,0,.659.315.822.822,0,0,0,.361-.069,1.221,1.221,0,0,0,.321-.266Z" transform="translate(-60.64 -19.854)" fill="#85898b"/>
      <path id="패스_28112" data-name="패스 28112" d="M152.865,48.961a3.17,3.17,0,0,1-.095.822,1.305,1.305,0,0,1-.333.585,1.344,1.344,0,0,1-.45.31,1.579,1.579,0,0,1-.618.113,1.533,1.533,0,0,1-.606-.113,1.327,1.327,0,0,1-.453-.31,1.386,1.386,0,0,1-.335-.585,3.117,3.117,0,0,1-.09-.822,3.162,3.162,0,0,1,.09-.818,1.33,1.33,0,0,1,.335-.583,1.29,1.29,0,0,1,.446-.31,1.524,1.524,0,0,1,.612-.112,1.565,1.565,0,0,1,.616.112,1.3,1.3,0,0,1,.452.31,1.367,1.367,0,0,1,.333.583,3.109,3.109,0,0,1,.095.818m-.722,0a3.016,3.016,0,0,0-.036-.549.838.838,0,0,0-.208-.429.777.777,0,0,0-1.049,0,.777.777,0,0,0-.2.39,3,3,0,0,0-.049.588,3.065,3.065,0,0,0,.046.594.721.721,0,0,0,.2.382.707.707,0,0,0,.52.21.715.715,0,0,0,.529-.21.764.764,0,0,0,.2-.391,2.9,2.9,0,0,0,.049-.585" transform="translate(-63.133 -19.855)" fill="#85898b"/>
      <path id="패스_28113" data-name="패스 28113" d="M161.763,50.747h-.718V48.573a.79.79,0,0,0-.2-.6.682.682,0,0,0-.516-.2.766.766,0,0,0-.53.192.733.733,0,0,0-.211.568v2.208h-.717V48.573a.8.8,0,0,0-.2-.6.71.71,0,0,0-.529-.2.74.74,0,0,0-.536.2.778.778,0,0,0-.207.594v2.174h-.7V47.183h.7v.357a1.171,1.171,0,0,1,.428-.3,1.341,1.341,0,0,1,.524-.1,1.131,1.131,0,0,1,1.013.517,1.381,1.381,0,0,1,1.118-.517,1.463,1.463,0,0,1,.5.083,1.135,1.135,0,0,1,.4.24,1.176,1.176,0,0,1,.281.446,1.562,1.562,0,0,1,.1.559Z" transform="translate(-66.003 -19.855)" fill="#85898b"/>
      <path id="패스_28114" data-name="패스 28114" d="M70.089,31.069a3.2,3.2,0,0,1-3.2,3.2H3.2a3.2,3.2,0,1,1,0-6.4H66.885a3.2,3.2,0,0,1,3.2,3.2" transform="translate(0 -11.738)" fill="#40c140"/>
      <path id="패스_28115" data-name="패스 28115" d="M146.76,31.069a3.2,3.2,0,0,1-3.207,3.2H124.3a3.2,3.2,0,1,1,0-6.4h19.257a3.2,3.2,0,0,1,3.207,3.2" transform="translate(-51.005 -11.738)" fill="#0064ff"/>
    </g>
  </g>
</svg>
